<?xml version="1.0" encoding="UTF-8"?>
<svg width="800" height="400" viewBox="0 0 800 400" fill="none" xmlns="http://www.w3.org/2000/svg">
  <!-- 背景 -->
  <rect width="800" height="400" rx="8" fill="#F8F9FA"/>
  
  <!-- 浏览器顶栏 -->
  <rect width="800" height="40" rx="8" fill="#E9ECEF"/>
  <circle cx="24" cy="20" r="6" fill="#FF6B6B"/>
  <circle cx="48" cy="20" r="6" fill="#FFD93D"/>
  <circle cx="72" cy="20" r="6" fill="#6BCB77"/>
  
  <!-- 插件界面 -->
  <rect x="40" y="60" width="720" height="300" rx="8" fill="white" stroke="#DEE2E6"/>
  
  <!-- 提示词编辑区 -->
  <rect x="60" y="80" width="680" height="120" rx="4" fill="#F8F9FA" stroke="#DEE2E6"/>
  <rect x="80" y="100" width="200" height="16" rx="2" fill="#ADB5BD"/>
  <rect x="80" y="130" width="640" height="50" rx="2" fill="#E9ECEF"/>
  
  <!-- 功能按钮区 -->
  <rect x="60" y="220" width="100" height="32" rx="16" fill="#4263EB"/>
  <rect x="180" y="220" width="100" height="32" rx="16" fill="#E9ECEF"/>
  <rect x="300" y="220" width="100" height="32" rx="16" fill="#E9ECEF"/>
  
  <!-- 提示词列表 -->
  <rect x="60" y="272" width="680" height="60" rx="4" fill="#F8F9FA" stroke="#DEE2E6"/>
  <rect x="80" y="292" width="160" height="12" rx="2" fill="#ADB5BD"/>
  <rect x="80" y="312" width="400" height="8" rx="2" fill="#DEE2E6"/>
</svg>
